<?xml version="1.0" encoding="UTF-8"?>
<svg version="1.1" xmlns="http://www.w3.org/2000/svg" width="798" height="552">
<path d="M0,0 L798,0 L798,552 L0,552 Z " fill="#000000" transform="translate(0,0)"/>
<path d="M0,0 L26,0 L26,1 L38,1 L38,2 L47,2 L47,3 L54,3 L54,4 L59,4 L59,5 L64,5 L64,6 L68,6 L68,7 L72,7 L72,8 L76,8 L76,9 L79,9 L79,10 L82,10 L82,11 L86,11 L86,12 L88,12 L88,13 L91,13 L91,14 L94,14 L94,15 L97,15 L97,16 L99,16 L99,17 L102,17 L102,18 L104,18 L104,19 L106,19 L106,20 L109,20 L109,21 L111,21 L111,22 L113,22 L113,23 L115,23 L115,24 L117,24 L117,25 L119,25 L119,26 L121,26 L121,27 L123,27 L123,28 L125,28 L125,29 L126,29 L126,30 L128,30 L128,31 L130,31 L130,32 L132,32 L132,33 L133,33 L133,34 L135,34 L135,35 L137,35 L137,36 L138,36 L138,37 L140,37 L140,38 L141,38 L141,39 L143,39 L143,40 L144,40 L144,41 L145,41 L145,42 L147,42 L147,43 L148,43 L148,44 L150,44 L150,45 L151,45 L151,46 L152,46 L152,47 L154,47 L154,48 L155,48 L155,49 L156,49 L156,50 L158,50 L158,51 L159,51 L159,52 L160,52 L160,53 L161,53 L161,54 L162,54 L162,55 L163,55 L163,56 L164,56 L164,57 L166,57 L166,58 L167,58 L167,59 L168,59 L168,60 L169,60 L169,61 L170,61 L170,62 L171,62 L171,63 L172,63 L172,64 L173,64 L173,65 L174,65 L174,66 L175,66 L175,67 L176,67 L176,68 L177,68 L177,69 L178,69 L178,70 L179,70 L179,71 L180,71 L180,72 L181,72 L181,73 L182,73 L182,74 L183,74 L183,75 L184,75 L184,76 L185,76 L185,77 L186,77 L186,78 L187,78 L187,80 L188,80 L188,81 L189,81 L189,82 L190,82 L190,83 L191,83 L191,84 L192,84 L192,86 L193,86 L193,87 L194,87 L194,88 L195,88 L195,89 L196,89 L196,91 L197,91 L197,92 L198,92 L198,93 L199,93 L199,95 L200,95 L200,96 L201,96 L201,97 L202,97 L202,99 L203,99 L203,100 L204,100 L204,102 L205,102 L205,103 L206,103 L206,105 L207,105 L207,107 L208,107 L208,108 L209,108 L209,110 L210,110 L210,111 L211,111 L211,113 L212,113 L212,115 L213,115 L213,116 L214,116 L214,118 L215,118 L215,120 L216,120 L216,122 L217,122 L217,124 L218,124 L218,126 L219,126 L219,128 L220,128 L220,130 L221,130 L221,132 L222,132 L222,134 L223,134 L223,136 L224,136 L224,139 L225,139 L225,141 L226,141 L226,144 L227,144 L227,146 L228,146 L228,149 L229,149 L229,151 L230,151 L230,154 L231,154 L231,157 L232,157 L232,160 L233,160 L233,164 L234,164 L234,167 L235,167 L235,171 L236,171 L236,175 L237,175 L237,179 L238,179 L238,184 L239,184 L239,189 L240,189 L240,197 L241,197 L241,203 L242,203 L242,216 L243,216 L243,240 L242,240 L242,253 L241,253 L241,257 L240,257 L240,266 L239,266 L239,271 L238,271 L238,275 L237,275 L237,280 L236,280 L236,285 L235,285 L235,288 L234,288 L234,291 L233,291 L233,295 L232,295 L232,299 L231,299 L231,301 L230,301 L230,304 L229,304 L229,307 L228,307 L228,310 L227,310 L227,312 L226,312 L226,314 L225,314 L225,317 L224,317 L224,319 L223,319 L223,322 L222,322 L222,324 L221,324 L221,326 L220,326 L220,328 L219,328 L219,330 L218,330 L218,332 L217,332 L217,334 L216,334 L216,336 L215,336 L215,338 L214,338 L214,339 L213,339 L213,341 L212,341 L212,343 L211,343 L211,345 L210,345 L210,346 L209,346 L209,348 L208,348 L208,349 L207,349 L207,351 L206,351 L206,352 L205,352 L205,354 L204,354 L204,356 L203,356 L203,357 L202,357 L202,358 L201,358 L201,360 L200,360 L200,361 L199,361 L199,363 L198,363 L198,364 L197,364 L197,365 L196,365 L196,367 L195,367 L195,368 L194,368 L194,369 L193,369 L193,370 L192,370 L192,372 L191,372 L191,373 L190,373 L190,374 L189,374 L189,375 L188,375 L188,376 L187,376 L187,378 L186,378 L186,379 L185,379 L185,380 L184,380 L184,381 L183,381 L183,382 L182,382 L182,383 L181,383 L181,384 L180,384 L180,385 L179,385 L179,386 L178,386 L178,387 L177,387 L177,388 L176,388 L176,389 L175,389 L175,390 L174,390 L174,391 L173,391 L173,392 L172,392 L172,393 L171,393 L171,394 L170,394 L170,395 L169,395 L169,396 L168,396 L168,397 L167,397 L167,398 L166,398 L166,399 L165,399 L165,400 L164,400 L164,401 L162,401 L162,402 L161,402 L161,403 L160,403 L160,404 L159,404 L159,405 L158,405 L158,406 L156,406 L156,407 L155,407 L155,408 L154,408 L154,409 L152,409 L152,410 L151,410 L151,411 L150,411 L150,412 L148,412 L148,413 L147,413 L147,414 L146,414 L146,415 L144,415 L144,416 L143,416 L143,417 L141,417 L141,418 L140,418 L140,419 L138,419 L138,420 L136,420 L136,421 L135,421 L135,422 L133,422 L133,423 L132,423 L132,424 L130,424 L130,425 L128,425 L128,426 L126,426 L126,427 L125,427 L125,428 L123,428 L123,429 L121,429 L121,430 L119,430 L119,431 L117,431 L117,432 L115,432 L115,433 L113,433 L113,434 L111,434 L111,435 L109,435 L109,436 L106,436 L106,437 L104,437 L104,438 L102,438 L102,439 L99,439 L99,440 L97,440 L97,441 L94,441 L94,442 L91,442 L91,443 L88,443 L88,444 L86,444 L86,445 L82,445 L82,446 L79,446 L79,447 L76,447 L76,448 L72,448 L72,449 L68,449 L68,450 L64,450 L64,451 L59,451 L59,452 L54,452 L54,453 L46,453 L46,454 L38,454 L38,455 L26,455 L26,456 L0,456 L0,455 L-10,455 L-10,454 L-18,454 L-18,453 L-24,453 L-24,452 L-30,452 L-30,451 L-34,451 L-34,450 L-38,450 L-38,449 L-43,449 L-43,448 L-46,448 L-46,447 L-50,447 L-50,446 L-53,446 L-53,445 L-56,445 L-56,444 L-59,444 L-59,443 L-62,443 L-62,442 L-65,442 L-65,441 L-67,441 L-67,440 L-70,440 L-70,439 L-72,439 L-72,438 L-74,438 L-74,437 L-77,437 L-77,436 L-79,436 L-79,435 L-80,435 L-80,434 L-83,434 L-83,433 L-85,433 L-85,432 L-87,432 L-87,431 L-90,431 L-90,430 L-91,430 L-91,429 L-93,429 L-93,428 L-95,428 L-95,427 L-97,427 L-97,426 L-98,426 L-98,425 L-100,425 L-100,424 L-102,424 L-102,423 L-104,423 L-104,422 L-105,422 L-105,421 L-107,421 L-107,420 L-108,420 L-108,419 L-110,419 L-110,418 L-111,418 L-111,417 L-113,417 L-113,416 L-114,416 L-114,415 L-116,415 L-116,414 L-117,414 L-117,413 L-119,413 L-119,412 L-120,412 L-120,411 L-121,411 L-121,410 L-123,410 L-123,409 L-124,409 L-124,408 L-125,408 L-125,407 L-127,407 L-127,406 L-128,406 L-128,405 L-129,405 L-129,404 L-130,404 L-130,403 L-131,403 L-131,402 L-133,402 L-133,401 L-134,401 L-134,400 L-135,400 L-135,399 L-136,399 L-136,398 L-137,398 L-137,397 L-138,397 L-138,396 L-139,396 L-139,395 L-140,395 L-140,394 L-141,394 L-141,393 L-143,393 L-143,392 L-144,392 L-144,391 L-145,391 L-145,390 L-146,390 L-146,388 L-147,388 L-147,387 L-148,387 L-148,386 L-149,386 L-149,385 L-150,385 L-150,384 L-151,384 L-151,383 L-152,383 L-152,382 L-153,382 L-153,381 L-154,381 L-154,380 L-155,380 L-155,379 L-156,379 L-156,378 L-157,378 L-157,377 L-158,377 L-158,376 L-159,376 L-159,374 L-160,374 L-160,373 L-161,373 L-161,372 L-162,372 L-162,371 L-163,371 L-163,369 L-164,369 L-164,368 L-165,368 L-165,367 L-166,367 L-166,366 L-167,366 L-167,364 L-168,364 L-168,363 L-169,363 L-169,362 L-170,362 L-170,360 L-171,360 L-171,359 L-172,359 L-172,357 L-173,357 L-173,356 L-174,356 L-174,354 L-175,354 L-175,353 L-176,353 L-176,351 L-177,351 L-177,350 L-178,350 L-178,348 L-179,348 L-179,347 L-180,347 L-180,345 L-181,345 L-181,343 L-182,343 L-182,341 L-183,341 L-183,340 L-184,340 L-184,338 L-185,338 L-185,336 L-186,336 L-186,334 L-187,334 L-187,332 L-188,332 L-188,330 L-189,330 L-189,328 L-190,328 L-190,326 L-191,326 L-191,324 L-192,324 L-192,322 L-193,322 L-193,319 L-194,319 L-194,317 L-195,317 L-195,315 L-196,315 L-196,312 L-197,312 L-197,310 L-198,310 L-198,307 L-199,307 L-199,304 L-200,304 L-200,302 L-201,302 L-201,299 L-202,299 L-202,295 L-203,295 L-203,292 L-204,292 L-204,290 L-205,290 L-205,285 L-206,285 L-206,281 L-207,281 L-207,277 L-208,277 L-208,272 L-209,272 L-209,267 L-210,267 L-210,261 L-211,261 L-211,253 L-212,253 L-212,240 L-213,240 L-213,215 L-212,215 L-212,203 L-211,203 L-211,194 L-210,194 L-210,189 L-209,189 L-209,183 L-208,183 L-208,178 L-207,178 L-207,174 L-206,174 L-206,170 L-205,170 L-205,167 L-204,167 L-204,163 L-203,163 L-203,161 L-202,161 L-202,157 L-201,157 L-201,154 L-200,154 L-200,151 L-199,151 L-199,148 L-198,148 L-198,146 L-197,146 L-197,143 L-196,143 L-196,141 L-195,141 L-195,138 L-194,138 L-194,136 L-193,136 L-193,134 L-192,134 L-192,132 L-191,132 L-191,129 L-190,129 L-190,127 L-189,127 L-189,126 L-188,126 L-188,124 L-187,124 L-187,122 L-186,122 L-186,120 L-185,120 L-185,118 L-184,118 L-184,116 L-183,116 L-183,114 L-182,114 L-182,113 L-181,113 L-181,111 L-180,111 L-180,109 L-179,109 L-179,108 L-178,108 L-178,106 L-177,106 L-177,105 L-176,105 L-176,103 L-175,103 L-175,102 L-174,102 L-174,100 L-173,100 L-173,99 L-172,99 L-172,97 L-171,97 L-171,96 L-170,96 L-170,94 L-169,94 L-169,93 L-168,93 L-168,92 L-167,92 L-167,90 L-166,90 L-166,89 L-165,89 L-165,88 L-164,88 L-164,86 L-163,86 L-163,85 L-162,85 L-162,84 L-161,84 L-161,83 L-160,83 L-160,81 L-159,81 L-159,80 L-158,80 L-158,79 L-157,79 L-157,78 L-156,78 L-156,77 L-155,77 L-155,76 L-154,76 L-154,75 L-153,75 L-153,74 L-152,74 L-152,73 L-151,73 L-151,72 L-150,72 L-150,70 L-149,70 L-149,69 L-148,69 L-148,68 L-147,68 L-147,67 L-146,67 L-146,66 L-145,66 L-145,65 L-144,65 L-144,64 L-143,64 L-143,63 L-141,63 L-141,62 L-140,62 L-140,61 L-139,61 L-139,60 L-138,60 L-138,59 L-137,59 L-137,58 L-136,58 L-136,57 L-135,57 L-135,56 L-134,56 L-134,55 L-132,55 L-132,54 L-131,54 L-131,53 L-130,53 L-130,52 L-129,52 L-129,51 L-128,51 L-128,50 L-126,50 L-126,49 L-125,49 L-125,48 L-124,48 L-124,47 L-123,47 L-123,46 L-121,46 L-121,45 L-120,45 L-120,44 L-118,44 L-118,43 L-117,43 L-117,42 L-116,42 L-116,41 L-114,41 L-114,40 L-113,40 L-113,39 L-111,39 L-111,38 L-110,38 L-110,37 L-108,37 L-108,36 L-107,36 L-107,35 L-105,35 L-105,34 L-103,34 L-103,33 L-102,33 L-102,32 L-100,32 L-100,31 L-99,31 L-99,30 L-97,30 L-97,29 L-95,29 L-95,28 L-93,28 L-93,27 L-91,27 L-91,26 L-90,26 L-90,25 L-87,25 L-87,24 L-85,24 L-85,23 L-83,23 L-83,22 L-81,22 L-81,21 L-79,21 L-79,20 L-77,20 L-77,19 L-74,19 L-74,18 L-72,18 L-72,17 L-70,17 L-70,16 L-67,16 L-67,15 L-65,15 L-65,14 L-62,14 L-62,13 L-59,13 L-59,12 L-56,12 L-56,11 L-53,11 L-53,10 L-50,10 L-50,9 L-46,9 L-46,8 L-43,8 L-43,7 L-39,7 L-39,6 L-34,6 L-34,5 L-30,5 L-30,4 L-24,4 L-24,3 L-18,3 L-18,2 L-10,2 L-10,1 L0,1 Z " fill="#FC3D18" transform="translate(386,48)"/>
<path d="M0,0 L87,0 L87,270 L40,270 L40,37 L4,37 L4,38 L0,38 L0,39 L-5,39 L-5,40 L-8,40 L-8,41 L-11,41 L-11,42 L-13,42 L-13,43 L-15,43 L-15,44 L-17,44 L-17,45 L-19,45 L-19,46 L-21,46 L-21,47 L-22,47 L-22,48 L-23,48 L-23,49 L-24,49 L-24,50 L-25,50 L-25,51 L-27,51 L-27,52 L-28,52 L-28,53 L-29,53 L-29,54 L-30,54 L-30,56 L-31,56 L-31,57 L-32,57 L-32,59 L-33,59 L-33,60 L-34,60 L-34,62 L-35,62 L-35,64 L-36,64 L-36,66 L-37,66 L-37,70 L-38,70 L-38,74 L-39,74 L-39,99 L-38,99 L-38,104 L-37,104 L-37,107 L-36,107 L-36,110 L-35,110 L-35,113 L-34,113 L-34,115 L-33,115 L-33,117 L-32,117 L-32,119 L-31,119 L-31,121 L-30,121 L-30,122 L-29,122 L-29,124 L-28,124 L-28,125 L-27,125 L-27,127 L-26,127 L-26,128 L-25,128 L-25,129 L-24,129 L-24,130 L-23,130 L-23,131 L-22,131 L-22,132 L-21,132 L-21,133 L-20,133 L-20,134 L-19,134 L-19,135 L-18,135 L-18,136 L-17,136 L-17,137 L-16,137 L-16,138 L-15,138 L-15,139 L-14,139 L-14,140 L-13,140 L-13,141 L-11,141 L-11,142 L-10,142 L-10,143 L-9,143 L-9,144 L-7,144 L-7,145 L-6,145 L-6,146 L-5,146 L-5,147 L-3,147 L-3,148 L-2,148 L-2,149 L-1,149 L-1,150 L1,150 L1,151 L3,151 L3,152 L4,152 L4,153 L5,153 L5,154 L7,154 L7,155 L8,155 L8,156 L10,156 L10,157 L11,157 L11,158 L13,158 L13,159 L14,159 L14,160 L16,160 L16,161 L17,161 L17,162 L19,162 L19,163 L20,163 L20,164 L22,164 L22,165 L23,165 L23,166 L25,166 L25,167 L26,167 L26,170 L25,170 L25,171 L24,171 L24,173 L23,173 L23,175 L22,175 L22,176 L21,176 L21,178 L20,178 L20,179 L19,179 L19,181 L18,181 L18,182 L17,182 L17,183 L16,183 L16,185 L15,185 L15,187 L14,187 L14,188 L13,188 L13,189 L12,189 L12,191 L11,191 L11,192 L10,192 L10,194 L9,194 L9,195 L8,195 L8,197 L7,197 L7,199 L6,199 L6,200 L5,200 L5,201 L4,201 L4,203 L3,203 L3,204 L2,204 L2,206 L1,206 L1,207 L0,207 L0,209 L-1,209 L-1,210 L-2,210 L-2,212 L-3,212 L-3,213 L-4,213 L-4,215 L-5,215 L-5,216 L-6,216 L-6,218 L-7,218 L-7,219 L-8,219 L-8,221 L-9,221 L-9,222 L-10,222 L-10,224 L-11,224 L-11,225 L-12,225 L-12,227 L-13,227 L-13,228 L-14,228 L-14,230 L-15,230 L-15,231 L-16,231 L-16,233 L-17,233 L-17,234 L-18,234 L-18,236 L-19,236 L-19,237 L-20,237 L-20,239 L-21,239 L-21,240 L-22,240 L-22,242 L-23,242 L-23,243 L-24,243 L-24,245 L-25,245 L-25,246 L-26,246 L-26,248 L-27,248 L-27,249 L-28,249 L-28,251 L-29,251 L-29,252 L-30,252 L-30,254 L-31,254 L-31,255 L-32,255 L-32,257 L-33,257 L-33,258 L-34,258 L-34,260 L-35,260 L-35,261 L-36,261 L-36,263 L-37,263 L-37,264 L-38,264 L-38,266 L-39,266 L-39,267 L-40,267 L-40,269 L-41,269 L-41,270 L-92,270 L-92,268 L-91,268 L-91,267 L-90,267 L-90,265 L-89,265 L-89,264 L-88,264 L-88,262 L-87,262 L-87,261 L-86,261 L-86,259 L-85,259 L-85,258 L-84,258 L-84,256 L-83,256 L-83,255 L-82,255 L-82,253 L-81,253 L-81,252 L-80,252 L-80,250 L-79,250 L-79,249 L-78,249 L-78,247 L-77,247 L-77,246 L-76,246 L-76,244 L-75,244 L-75,243 L-74,243 L-74,241 L-73,241 L-73,240 L-72,240 L-72,238 L-71,238 L-71,237 L-70,237 L-70,235 L-69,235 L-69,234 L-68,234 L-68,232 L-67,232 L-67,231 L-66,231 L-66,229 L-65,229 L-65,228 L-64,228 L-64,226 L-63,226 L-63,225 L-62,225 L-62,223 L-61,223 L-61,222 L-60,222 L-60,220 L-59,220 L-59,219 L-58,219 L-58,218 L-57,218 L-57,216 L-56,216 L-56,214 L-55,214 L-55,213 L-54,213 L-54,212 L-53,212 L-53,210 L-52,210 L-52,209 L-51,209 L-51,207 L-50,207 L-50,206 L-49,206 L-49,204 L-48,204 L-48,203 L-47,203 L-47,201 L-46,201 L-46,199 L-45,199 L-45,198 L-44,198 L-44,197 L-43,197 L-43,195 L-42,195 L-42,194 L-41,194 L-41,192 L-40,192 L-40,191 L-39,191 L-39,189 L-38,189 L-38,188 L-37,188 L-37,186 L-36,186 L-36,185 L-35,185 L-35,183 L-34,183 L-34,182 L-33,182 L-33,180 L-32,180 L-32,178 L-33,178 L-33,177 L-35,177 L-35,176 L-36,176 L-36,175 L-37,175 L-37,174 L-39,174 L-39,173 L-40,173 L-40,172 L-41,172 L-41,171 L-43,171 L-43,170 L-44,170 L-44,169 L-45,169 L-45,168 L-46,168 L-46,167 L-47,167 L-47,166 L-49,166 L-49,165 L-50,165 L-50,164 L-51,164 L-51,163 L-52,163 L-52,162 L-53,162 L-53,161 L-54,161 L-54,160 L-55,160 L-55,159 L-56,159 L-56,158 L-57,158 L-57,157 L-58,157 L-58,156 L-59,156 L-59,155 L-60,155 L-60,154 L-61,154 L-61,153 L-62,153 L-62,152 L-63,152 L-63,151 L-64,151 L-64,150 L-65,150 L-65,148 L-66,148 L-66,147 L-67,147 L-67,146 L-68,146 L-68,145 L-69,145 L-69,143 L-70,143 L-70,142 L-71,142 L-71,140 L-72,140 L-72,139 L-73,139 L-73,137 L-74,137 L-74,135 L-75,135 L-75,134 L-76,134 L-76,132 L-77,132 L-77,130 L-78,130 L-78,127 L-79,127 L-79,126 L-80,126 L-80,122 L-81,122 L-81,120 L-82,120 L-82,118 L-83,118 L-83,114 L-84,114 L-84,108 L-85,108 L-85,104 L-86,104 L-86,71 L-85,71 L-85,66 L-84,66 L-84,62 L-83,62 L-83,59 L-82,59 L-82,56 L-81,56 L-81,53 L-80,53 L-80,51 L-79,51 L-79,49 L-78,49 L-78,47 L-77,47 L-77,45 L-76,45 L-76,43 L-75,43 L-75,41 L-74,41 L-74,40 L-73,40 L-73,38 L-72,38 L-72,37 L-71,37 L-71,36 L-70,36 L-70,34 L-69,34 L-69,33 L-68,33 L-68,32 L-67,32 L-67,31 L-66,31 L-66,30 L-65,30 L-65,29 L-64,29 L-64,28 L-63,28 L-63,27 L-62,27 L-62,26 L-61,26 L-61,25 L-60,25 L-60,24 L-59,24 L-59,23 L-58,23 L-58,22 L-56,22 L-56,21 L-55,21 L-55,20 L-54,20 L-54,19 L-53,19 L-53,18 L-51,18 L-51,17 L-50,17 L-50,16 L-48,16 L-48,15 L-46,15 L-46,14 L-44,14 L-44,13 L-43,13 L-43,12 L-41,12 L-41,11 L-38,11 L-38,10 L-36,10 L-36,9 L-34,9 L-34,8 L-31,8 L-31,7 L-28,7 L-28,6 L-25,6 L-25,5 L-22,5 L-22,4 L-18,4 L-18,3 L-12,3 L-12,2 L-7,2 L-7,1 L0,1 Z " fill="#FEFEFE" transform="translate(390,141)"/>
<path d="M0,0 L798,0 L798,3 L0,3 Z " fill="#0E0E0E" transform="translate(0,549)"/>
<path d="M0,0 L798,0 L798,3 L0,3 Z " fill="#0E0E0E" transform="translate(0,0)"/>
<path d="M0,0 L87,0 L87,270 L40,270 L40,37 L10,37 L10,36 L36,36 L36,34 L34,34 L34,32 L18,32 L18,31 L35,31 L35,33 L37,33 L37,32 L36,32 L36,31 L42,31 L42,32 L40,32 L40,35 L41,35 L41,269 L85,269 L85,268 L86,268 L86,3 L26,3 L26,2 L83,2 L83,1 L18,1 L18,2 L14,2 L14,1 L5,1 L5,2 L9,2 L9,3 L3,3 L3,4 L2,4 L2,5 L-1,5 L-1,6 L-13,6 L-13,5 L-14,5 L-14,6 L-16,6 L-16,5 L-22,5 L-22,4 L-18,4 L-18,3 L-12,3 L-12,2 L-7,2 L-7,1 L0,1 Z " fill="#FEFBF6" transform="translate(390,141)"/>
<path d="M0,0 L17,0 L17,2 L19,2 L19,1 L18,1 L18,0 L24,0 L24,1 L22,1 L22,4 L23,4 L23,238 L69,238 L69,239 L22,239 L22,6 L-8,6 L-8,5 L18,5 L18,3 L16,3 L16,1 L0,1 Z " fill="#FBF1E8" transform="translate(408,172)"/>
<path d="M0,0 L1,0 L1,1 L51,1 L51,2 L55,2 L55,4 L7,4 L7,2 L0,2 Z " fill="#F84D2D" transform="translate(297,410)"/>
<path d="M0,0 L1,0 L1,3 L2,3 L2,5 L3,5 L3,8 L4,8 L4,10 L5,10 L5,12 L6,12 L6,15 L7,15 L7,17 L8,17 L8,19 L9,19 L9,21 L10,21 L10,23 L11,23 L11,25 L12,25 L12,27 L13,27 L13,29 L14,29 L14,31 L13,31 L13,30 L11,30 L11,26 L10,26 L10,27 L9,27 L9,24 L7,24 L7,20 L5,20 L5,17 L6,17 L6,16 L5,16 L5,15 L4,15 L4,16 L1,16 L1,13 L0,13 L0,16 L-1,16 L-1,15 L-3,15 L-3,8 L-2,8 L-2,10 L-1,10 L-1,8 L1,8 L1,7 L0,7 L0,3 L-1,3 L-1,1 L0,1 Z " fill="#0C0403" transform="translate(187,355)"/>
<path d="M0,0 L18,0 L18,2 L14,2 L14,1 L5,1 L5,2 L9,2 L9,3 L3,3 L3,4 L2,4 L2,5 L-1,5 L-1,6 L-13,6 L-13,5 L-14,5 L-14,6 L-16,6 L-16,5 L-22,5 L-22,4 L-18,4 L-18,3 L-12,3 L-12,2 L-7,2 L-7,1 L0,1 Z " fill="#FDFDFD" transform="translate(390,141)"/>
<path d="M0,0 L1,0 L1,6 L0,6 L0,8 L-2,8 L-2,9 L-1,9 L-1,10 L0,10 L0,12 L-1,12 L-1,13 L-2,13 L-2,15 L-6,15 L-6,16 L-7,16 L-7,17 L-8,17 L-8,14 L-9,14 L-9,16 L-10,16 L-10,18 L-8,18 L-8,20 L-10,20 L-10,19 L-11,19 L-11,18 L-12,18 L-12,19 L-13,19 L-13,22 L-14,22 L-14,20 L-15,20 L-15,21 L-16,21 L-16,22 L-17,22 L-17,23 L-19,23 L-19,22 L-18,22 L-18,21 L-17,21 L-17,20 L-16,20 L-16,19 L-15,19 L-15,18 L-14,18 L-14,17 L-13,17 L-13,16 L-12,16 L-12,15 L-11,15 L-11,14 L-10,14 L-10,12 L-9,12 L-9,11 L-8,11 L-8,10 L-7,10 L-7,9 L-6,9 L-6,8 L-5,8 L-5,6 L-4,6 L-4,5 L-3,5 L-3,4 L-2,4 L-2,3 L-1,3 L-1,1 L0,1 Z " fill="#0D0404" transform="translate(583,412)"/>
<path d="M0,0 L2,0 L2,3 L3,3 L3,4 L2,4 L2,10 L1,10 L1,12 L0,12 L0,10 L-1,10 L-1,12 L-2,12 L-2,13 L-4,13 L-4,11 L-6,11 L-6,13 L-5,13 L-5,14 L-6,14 L-6,15 L-5,15 L-5,18 L-6,18 L-6,20 L-8,20 L-8,21 L-11,21 L-11,20 L-13,20 L-13,19 L-12,19 L-12,18 L-11,18 L-11,16 L-10,16 L-10,15 L-9,15 L-9,13 L-8,13 L-8,12 L-7,12 L-7,10 L-6,10 L-6,9 L-5,9 L-5,7 L-4,7 L-4,6 L-3,6 L-3,4 L-2,4 L-2,3 L-1,3 L-1,1 L0,1 Z " fill="#FAFAF7" transform="translate(317,381)"/>
<path d="M0,0 L1,0 L1,1 L2,1 L2,3 L1,3 L1,4 L0,4 L0,5 L1,5 L1,6 L2,6 L2,11 L1,11 L1,13 L-1,13 L-1,14 L-2,14 L-2,15 L-3,15 L-3,12 L-5,12 L-5,17 L-6,17 L-6,18 L-7,18 L-7,19 L-8,19 L-8,22 L-9,22 L-9,24 L-8,24 L-8,26 L-9,26 L-9,27 L-10,27 L-10,28 L-11,28 L-11,24 L-10,24 L-10,21 L-9,21 L-9,18 L-8,18 L-8,15 L-7,15 L-7,13 L-6,13 L-6,11 L-5,11 L-5,9 L-4,9 L-4,7 L-3,7 L-3,5 L-2,5 L-2,3 L-1,3 L-1,2 L0,2 Z " fill="#FAEDE9" transform="translate(317,179)"/>
<path d="M0,0 L1,0 L1,1 L4,1 L4,4 L3,4 L3,24 L2,24 L2,21 L0,21 L0,16 L-1,16 L-1,24 L-2,24 L-2,20 L-3,20 L-3,8 L-2,8 L-2,10 L-1,10 L-1,11 L0,11 L0,12 L2,12 L2,11 L1,11 L1,4 L0,4 Z " fill="#FEFDFC" transform="translate(348,211)"/>
<path d="M0,0 L2,0 L2,1 L3,1 L3,3 L2,3 L2,4 L3,4 L3,6 L2,6 L2,5 L1,5 L1,6 L-2,6 L-2,7 L-14,7 L-14,8 L-16,8 L-16,9 L-19,9 L-19,8 L-23,8 L-23,7 L-19,7 L-19,6 L-15,6 L-15,5 L-12,5 L-12,4 L-9,4 L-9,3 L-5,3 L-5,2 L-3,2 L-3,1 L0,1 Z " fill="#0A0303" transform="translate(477,490)"/>
<path d="M0,0 L5,0 L5,1 L8,1 L8,3 L7,3 L7,8 L8,8 L8,9 L6,9 L6,11 L8,11 L8,14 L7,14 L7,16 L6,16 L6,14 L5,14 L5,12 L4,12 L4,11 L3,11 L3,9 L2,9 L2,8 L1,8 L1,6 L0,6 L0,4 L-1,4 L-1,3 L-2,3 L-2,2 L-1,2 L-1,1 L0,1 Z " fill="#070203" transform="translate(592,147)"/>
<path d="M0,0 L1,0 L1,2 L0,2 L0,5 L2,5 L2,7 L-1,7 L-1,6 L-3,6 L-3,8 L-4,8 L-4,11 L-3,11 L-3,16 L-5,16 L-5,15 L-8,15 L-8,16 L-9,16 L-9,15 L-10,15 L-10,14 L-13,14 L-13,13 L-12,13 L-12,12 L-11,12 L-11,11 L-10,11 L-10,10 L-9,10 L-9,9 L-8,9 L-8,8 L-7,8 L-7,7 L-6,7 L-6,6 L-5,6 L-5,5 L-4,5 L-4,4 L-3,4 L-3,3 L-2,3 L-2,2 L-1,2 L-1,1 L0,1 Z " fill="#050203" transform="translate(563,435)"/>
<path d="M0,0 L3,0 L3,3 L7,3 L7,4 L8,4 L8,5 L9,5 L9,1 L10,1 L10,2 L11,2 L11,3 L12,3 L12,4 L11,4 L11,5 L12,5 L12,10 L11,10 L11,13 L10,13 L10,12 L9,12 L9,11 L8,11 L8,10 L7,10 L7,9 L6,9 L6,8 L5,8 L5,7 L4,7 L4,6 L2,6 L2,5 L1,5 L1,4 L0,4 L0,3 L-1,3 L-1,2 L-2,2 L-2,1 L0,1 Z " fill="#0B0303" transform="translate(548,99)"/>
<path d="M0,0 L17,0 L17,2 L19,2 L19,1 L18,1 L18,0 L24,0 L24,1 L22,1 L22,4 L23,4 L23,6 L-8,6 L-8,5 L18,5 L18,3 L16,3 L16,1 L0,1 Z " fill="#FADBD6" transform="translate(408,172)"/>
<path d="M0,0 L1,0 L1,1 L2,1 L2,2 L3,2 L3,4 L4,4 L4,5 L5,5 L5,6 L6,6 L6,7 L7,7 L7,8 L8,8 L8,9 L9,9 L9,10 L10,10 L10,11 L11,11 L11,12 L12,12 L12,13 L11,13 L11,14 L10,14 L10,13 L9,13 L9,15 L8,15 L8,14 L4,14 L4,12 L2,12 L2,6 L0,6 Z " fill="#0C0403" transform="translate(224,420)"/>
<path d="M0,0 L1,0 L1,2 L2,2 L2,4 L3,4 L3,6 L4,6 L4,7 L5,7 L5,9 L6,9 L6,10 L7,10 L7,12 L8,12 L8,13 L9,13 L9,14 L10,14 L10,15 L11,15 L11,16 L12,16 L12,17 L10,17 L10,16 L9,16 L9,18 L7,18 L7,17 L6,17 L6,16 L7,16 L7,15 L6,15 L6,14 L5,14 L5,10 L2,10 L2,11 L1,11 L1,10 L0,10 L0,9 L-1,9 L-1,4 L-3,4 L-3,2 L-2,2 L-2,1 L-1,1 L-1,2 L0,2 Z " fill="#FAF6F3" transform="translate(356,256)"/>
<path d="M0,0 L3,0 L3,1 L6,1 L6,2 L9,2 L9,3 L13,3 L13,4 L15,4 L15,5 L18,5 L18,6 L21,6 L21,7 L24,7 L24,8 L26,8 L26,9 L27,9 L27,11 L25,11 L25,10 L20,10 L20,9 L18,9 L18,8 L17,8 L17,6 L16,6 L16,7 L14,7 L14,8 L13,8 L13,6 L8,6 L8,5 L7,5 L7,3 L4,3 L4,2 L0,2 Z " fill="#EA3B19" transform="translate(459,56)"/>
<path d="M0,0 L6,0 L6,2 L4,2 L4,1 L2,1 L2,3 L4,3 L4,4 L3,4 L3,5 L0,5 L0,6 L-3,6 L-3,7 L-4,7 L-4,6 L-7,6 L-7,7 L-8,7 L-8,6 L-10,6 L-10,5 L-8,5 L-8,4 L-12,4 L-12,5 L-16,5 L-16,4 L-13,4 L-13,3 L-9,3 L-9,2 L-4,2 L-4,1 L0,1 Z " fill="#E73918" transform="translate(356,52)"/>
<path d="M0,0 L2,0 L2,1 L1,1 L1,10 L0,10 L0,11 L2,11 L2,13 L0,13 L0,14 L-1,14 L-1,12 L-2,12 L-2,13 L-8,13 L-8,12 L-7,12 L-7,10 L-6,10 L-6,9 L-5,9 L-5,7 L-4,7 L-4,6 L-3,6 L-3,4 L-2,4 L-2,3 L-1,3 L-1,2 L0,2 Z " fill="#FAF3F0" transform="translate(333,357)"/>
<path d="M0,0 L1,0 L1,1 L2,1 L2,3 L3,3 L3,4 L4,4 L4,6 L5,6 L5,8 L6,8 L6,9 L7,9 L7,11 L8,11 L8,13 L9,13 L9,15 L10,15 L10,16 L9,16 L9,17 L8,17 L8,15 L6,15 L6,13 L5,13 L5,14 L4,14 L4,13 L3,13 L3,15 L2,15 L2,16 L0,16 L0,13 L2,13 L2,5 L0,5 L0,3 L-1,3 L-1,1 L0,1 Z " fill="#F23B19" transform="translate(593,155)"/>
<path d="M0,0 L2,0 L2,8 L3,8 L3,5 L4,5 L4,29 L3,29 L3,20 L2,20 L2,18 L1,18 L1,16 L0,16 L0,8 L1,8 L1,3 L0,3 Z " fill="#CB3215" transform="translate(625,259)"/>
<path d="M0,0 L1,0 L1,1 L2,1 L2,2 L1,2 L1,6 L0,6 L0,8 L-1,8 L-1,12 L-2,12 L-2,15 L-3,15 L-3,19 L-4,19 L-4,16 L-5,16 L-5,15 L-6,15 L-6,10 L-5,10 L-5,4 L-6,4 L-6,3 L-4,3 L-4,4 L-3,4 L-3,8 L-2,8 L-2,2 L-1,2 L-1,1 L0,1 Z " fill="#050103" transform="translate(183,203)"/>
<path d="M0,0 L2,0 L2,1 L4,1 L4,2 L5,2 L5,3 L8,3 L8,4 L7,4 L7,5 L8,5 L8,6 L9,6 L9,7 L10,7 L10,8 L15,8 L15,6 L16,6 L16,7 L17,7 L17,8 L16,8 L16,9 L15,9 L15,11 L16,11 L16,17 L15,17 L15,16 L14,16 L14,14 L13,14 L13,13 L12,13 L12,12 L11,12 L11,11 L10,11 L10,10 L9,10 L9,9 L8,9 L8,8 L7,8 L7,7 L6,7 L6,6 L5,6 L5,5 L4,5 L4,4 L3,4 L3,3 L2,3 L2,2 L1,2 L1,1 L0,1 Z " fill="#0D0403" transform="translate(559,112)"/>
<path d="M0,0 L3,0 L3,1 L8,1 L8,4 L14,4 L14,7 L15,7 L15,9 L16,9 L16,10 L14,10 L14,9 L12,9 L12,8 L11,8 L11,7 L8,7 L8,6 L6,6 L6,5 L4,5 L4,4 L1,4 L1,3 L0,3 L0,2 L-2,2 L-2,1 L0,1 Z " fill="#EC3A19" transform="translate(295,475)"/>
<path d="M0,0 L3,0 L3,1 L4,1 L4,2 L6,2 L6,3 L7,3 L7,4 L9,4 L9,5 L10,5 L10,6 L12,6 L12,7 L13,7 L13,8 L15,8 L15,9 L16,9 L16,10 L18,10 L18,11 L17,11 L17,12 L16,12 L16,11 L15,11 L15,14 L14,14 L14,12 L13,12 L13,11 L14,11 L14,10 L11,10 L11,9 L10,9 L10,8 L9,8 L9,7 L8,7 L8,6 L7,6 L7,5 L-1,5 L-1,3 L0,3 L0,2 L1,2 L1,1 L0,1 Z " fill="#090204" transform="translate(266,461)"/>
<path d="M0,0 L1,0 L1,5 L3,5 L3,2 L4,2 L4,7 L3,7 L3,9 L2,9 L2,10 L1,10 L1,13 L2,13 L2,15 L1,15 L1,14 L0,14 L0,18 L-1,18 L-1,21 L-2,21 L-2,19 L-3,19 L-3,15 L-2,15 L-2,9 L-1,9 L-1,4 L0,4 Z " fill="#E9381A" transform="translate(179,222)"/>
<path d="M0,0 L1,0 L1,1 L3,1 L3,2 L2,2 L2,3 L1,3 L1,5 L0,5 L0,6 L-1,6 L-1,8 L-2,8 L-2,9 L-3,9 L-3,11 L-4,11 L-4,12 L-5,12 L-5,14 L-6,14 L-6,15 L-7,15 L-7,17 L-8,17 L-8,12 L-7,12 L-7,11 L-5,11 L-5,8 L-3,8 L-3,7 L-6,7 L-6,8 L-7,8 L-7,7 L-9,7 L-9,6 L-8,6 L-8,5 L-6,5 L-6,4 L-3,4 L-3,2 L0,2 Z " fill="#FEFDFD" transform="translate(363,384)"/>
<path d="M0,0 L1,0 L1,1 L2,1 L2,3 L3,3 L3,4 L4,4 L4,5 L5,5 L5,6 L6,6 L6,8 L7,8 L7,9 L8,9 L8,10 L9,10 L9,12 L10,12 L10,13 L11,13 L11,14 L12,14 L12,16 L11,16 L11,17 L10,17 L10,15 L9,15 L9,14 L7,14 L7,13 L5,13 L5,12 L4,12 L4,11 L3,11 L3,8 L0,8 L0,7 L2,7 L2,6 L1,6 L1,5 L0,5 L0,4 L1,4 L1,2 L0,2 Z " fill="#EA3B18" transform="translate(576,131)"/>
<path d="M0,0 L3,0 L3,2 L2,2 L2,3 L3,3 L3,7 L1,7 L1,6 L0,6 L0,5 L-5,5 L-5,7 L-9,7 L-9,6 L-10,6 L-10,5 L-11,5 L-11,4 L-9,4 L-9,3 L-6,3 L-6,2 L-3,2 L-3,1 L0,1 Z " fill="#FBF3F0" transform="translate(365,146)"/>
<path d="M0,0 L1,0 L1,9 L2,9 L2,14 L0,14 L0,16 L-2,16 L-2,17 L-3,17 L-3,19 L-4,19 L-4,18 L-5,18 L-5,16 L-4,16 L-4,13 L-3,13 L-3,11 L-2,11 L-2,7 L-1,7 L-1,3 L0,3 Z " fill="#110404" transform="translate(620,336)"/>
<path d="M0,0 L1,0 L1,5 L2,5 L2,9 L3,9 L3,4 L4,4 L4,6 L5,6 L5,8 L4,8 L4,11 L3,11 L3,12 L4,12 L4,13 L3,13 L3,16 L5,16 L5,18 L4,18 L4,20 L5,20 L5,21 L4,21 L4,23 L6,23 L6,24 L5,24 L5,26 L4,26 L4,24 L3,24 L3,20 L2,20 L2,14 L1,14 L1,10 L0,10 Z " fill="#FCEEEB" transform="translate(304,235)"/>
<path d="M0,0 L1,0 L1,3 L2,3 L2,5 L0,5 L0,6 L-1,6 L-1,4 L-2,4 L-2,5 L-3,5 L-3,7 L-2,7 L-2,8 L-3,8 L-3,14 L-4,14 L-4,13 L-5,13 L-5,12 L-6,12 L-6,11 L-4,11 L-4,9 L-6,9 L-6,10 L-8,10 L-8,12 L-7,12 L-7,14 L-8,14 L-8,13 L-10,13 L-10,14 L-12,14 L-12,13 L-11,13 L-11,12 L-10,12 L-10,10 L-9,10 L-9,9 L-8,9 L-8,8 L-7,8 L-7,7 L-6,7 L-6,6 L-5,6 L-5,5 L-4,5 L-4,4 L-3,4 L-3,3 L-2,3 L-2,2 L-1,2 L-1,1 L0,1 Z " fill="#FAF6F2" transform="translate(330,165)"/>
<path d="M0,0 L1,0 L1,2 L2,2 L2,4 L1,4 L1,5 L0,5 L0,6 L-2,6 L-2,8 L-5,8 L-5,7 L-6,7 L-6,8 L-7,8 L-7,9 L-5,9 L-5,10 L-6,10 L-6,12 L-11,12 L-11,13 L-12,13 L-12,14 L-14,14 L-14,13 L-13,13 L-13,12 L-12,12 L-12,11 L-11,11 L-11,10 L-10,10 L-10,9 L-9,9 L-9,8 L-8,8 L-8,7 L-7,7 L-7,6 L-5,6 L-5,5 L-4,5 L-4,4 L-3,4 L-3,3 L-2,3 L-2,2 L-1,2 L-1,1 L0,1 Z " fill="#F23C1A" transform="translate(250,105)"/>
<path d="M0,0 L2,0 L2,1 L3,1 L3,2 L5,2 L5,3 L8,3 L8,4 L10,4 L10,5 L12,5 L12,6 L15,6 L15,7 L10,7 L10,6 L9,6 L9,7 L8,7 L8,6 L6,6 L6,7 L7,7 L7,8 L5,8 L5,7 L3,7 L3,8 L2,8 L2,7 L0,7 L0,3 L1,3 L1,1 L0,1 Z " fill="#0F0402" transform="translate(304,482)"/>
<path d="M0,0 L1,0 L1,2 L0,2 L0,4 L-2,4 L-2,6 L-3,6 L-3,7 L-6,7 L-6,8 L-8,8 L-8,7 L-12,7 L-12,8 L-14,8 L-14,7 L-15,7 L-15,6 L-12,6 L-12,5 L-10,5 L-10,4 L-7,4 L-7,3 L-5,3 L-5,2 L-3,2 L-3,1 L0,1 Z " fill="#0F0404" transform="translate(495,483)"/>
<path d="M0,0 L6,0 L6,1 L8,1 L8,3 L13,3 L13,5 L16,5 L16,7 L14,7 L14,9 L13,9 L13,8 L12,8 L12,7 L10,7 L10,6 L8,6 L8,5 L7,5 L7,4 L5,4 L5,3 L3,3 L3,2 L1,2 L1,1 L0,1 Z " fill="#0F0404" transform="translate(511,76)"/>
<path d="M0,0 L2,0 L2,1 L1,1 L1,2 L-3,2 L-3,3 L-11,3 L-11,4 L-7,4 L-7,5 L-10,5 L-10,6 L-8,6 L-8,7 L-16,7 L-16,6 L-13,6 L-13,5 L-16,5 L-16,4 L-21,4 L-21,3 L-13,3 L-13,2 L-5,2 L-5,1 L0,1 Z " fill="#110404" transform="translate(445,499)"/>
<path d="M0,0 L2,0 L2,1 L1,1 L1,3 L4,3 L4,1 L5,1 L5,4 L4,4 L4,6 L3,6 L3,7 L2,7 L2,9 L1,9 L1,11 L0,11 L0,13 L-1,13 L-1,15 L-2,15 L-2,17 L-3,17 L-3,12 L-2,12 L-2,9 L-1,9 L-1,7 L0,7 L0,6 L-1,6 L-1,5 L0,5 L0,3 L-1,3 L-1,2 L0,2 Z " fill="#0E0404" transform="translate(201,155)"/>
<path d="M0,0 L18,0 L18,2 L14,2 L14,1 L5,1 L5,2 L9,2 L9,3 L3,3 L3,4 L0,4 L0,3 L-1,3 L-1,2 L-7,2 L-7,1 L0,1 Z " fill="#FAEAE6" transform="translate(390,141)"/>
<path d="M0,0 L1,0 L1,7 L2,7 L2,12 L1,12 L1,9 L0,9 L0,10 L-1,10 L-1,12 L-2,12 L-2,13 L-3,13 L-3,11 L-6,11 L-6,10 L-5,10 L-5,8 L-4,8 L-4,7 L-3,7 L-3,5 L-2,5 L-2,4 L-1,4 L-1,2 L0,2 Z " fill="#030103" transform="translate(598,389)"/>
<path d="M0,0 L1,0 L1,2 L0,2 L0,4 L-1,4 L-1,12 L0,12 L0,11 L1,11 L1,13 L-1,13 L-1,14 L-4,14 L-4,12 L-7,12 L-7,10 L-6,10 L-6,9 L-5,9 L-5,7 L-4,7 L-4,6 L-3,6 L-3,5 L-2,5 L-2,3 L-1,3 L-1,1 L0,1 Z " fill="#F9411C" transform="translate(407,323)"/>
<path d="M0,0 L2,0 L2,1 L1,1 L1,3 L3,3 L3,2 L8,2 L8,3 L7,3 L7,4 L4,4 L4,5 L2,5 L2,6 L0,6 L0,7 L-3,7 L-3,8 L-5,8 L-5,9 L-6,9 L-6,6 L-5,6 L-5,5 L-3,5 L-3,4 L-2,4 L-2,1 L0,1 Z " fill="#0C0304" transform="translate(312,60)"/>
<path d="M0,0 L2,0 L2,1 L3,1 L3,0 L7,0 L7,3 L8,3 L8,4 L9,4 L9,6 L8,6 L8,7 L9,7 L9,9 L8,9 L8,8 L6,8 L6,7 L5,7 L5,6 L4,6 L4,5 L3,5 L3,4 L2,4 L2,3 L1,3 L1,2 L0,2 Z " fill="#F9F4EF" transform="translate(335,299)"/>
<path d="M0,0 L1,0 L1,2 L0,2 L0,4 L1,4 L1,3 L3,3 L3,4 L2,4 L2,5 L4,5 L4,6 L7,6 L7,8 L4,8 L4,7 L1,7 L1,6 L-2,6 L-2,5 L-6,5 L-6,4 L-10,4 L-10,3 L-5,3 L-5,2 L-1,2 L-1,1 L0,1 Z " fill="#0F0303" transform="translate(464,51)"/>
<path d="M0,0 L2,0 L2,6 L1,6 L1,18 L0,18 L0,11 L-1,11 L-1,8 L-2,8 L-2,1 L0,1 Z " fill="#0C0302" transform="translate(173,245)"/>
<path d="M0,0 L1,0 L1,4 L2,4 L2,7 L3,7 L3,11 L4,11 L4,15 L5,15 L5,19 L4,19 L4,17 L1,17 L1,11 L2,11 L2,8 L0,8 L0,5 L-1,5 L-1,3 L0,3 Z " fill="#E4391A" transform="translate(618,208)"/>
<path d="M0,0 L1,0 L1,1 L4,1 L4,4 L3,4 L3,24 L2,24 L2,11 L1,11 L1,4 L0,4 Z " fill="#F7CDC8" transform="translate(348,211)"/>
<path d="M0,0 L1,0 L1,2 L2,2 L2,4 L3,4 L3,6 L4,6 L4,8 L5,8 L5,10 L6,10 L6,12 L3,12 L3,13 L2,13 L2,9 L0,9 L0,5 L-1,5 L-1,2 L0,2 Z " fill="#E53919" transform="translate(604,174)"/>
<path d="M0,0 L3,0 L3,1 L10,1 L10,3 L4,3 L4,5 L5,5 L5,4 L7,4 L7,5 L8,5 L8,8 L7,8 L7,7 L5,7 L5,6 L3,6 L3,5 L1,5 L1,4 L-1,4 L-1,3 L1,3 L1,1 L0,1 Z " fill="#0B0403" transform="translate(502,68)"/>
<path d="M0,0 L1,0 L1,1 L3,1 L3,2 L4,2 L4,3 L5,3 L5,4 L7,4 L7,5 L8,5 L8,6 L10,6 L10,7 L5,7 L5,8 L3,8 L3,6 L-1,6 L-1,3 L1,3 L1,2 L0,2 Z " fill="#FAF3EE" transform="translate(390,291)"/>
<path d="M0,0 L3,0 L3,4 L4,4 L4,5 L5,5 L5,9 L3,9 L3,10 L0,10 L0,9 L1,9 L1,6 L0,6 L0,4 L-1,4 L-1,2 L0,2 Z " fill="#FA4322" transform="translate(307,263)"/>
<path d="M0,0 L2,0 L2,1 L3,1 L3,2 L4,2 L4,3 L3,3 L3,5 L2,5 L2,6 L1,6 L1,8 L0,8 L0,9 L-1,9 L-1,7 L-4,7 L-4,4 L-2,4 L-2,2 L-1,2 L-1,1 L0,1 Z " fill="#0A0304" transform="translate(213,139)"/>
<path d="M0,0 L3,0 L3,1 L1,1 L1,2 L4,2 L4,3 L13,3 L13,4 L15,4 L15,6 L11,6 L11,5 L7,5 L7,4 L3,4 L3,3 L-2,3 L-2,2 L-5,2 L-5,1 L0,1 Z " fill="#D33619" transform="translate(345,494)"/>
<path d="M0,0 L2,0 L2,1 L1,1 L1,2 L4,2 L4,4 L0,4 L0,5 L1,5 L1,7 L0,7 L0,6 L-1,6 L-1,5 L-3,5 L-3,6 L-4,6 L-4,5 L-6,5 L-6,6 L-8,6 L-8,4 L-6,4 L-6,3 L-4,3 L-4,2 L-2,2 L-2,1 L0,1 Z " fill="#F03A1A" transform="translate(307,68)"/>
<path d="M0,0 L1,0 L1,2 L0,2 L0,5 L2,5 L2,7 L-1,7 L-1,6 L-3,6 L-3,8 L-4,8 L-4,9 L-6,9 L-6,10 L-9,10 L-9,9 L-8,9 L-8,8 L-7,8 L-7,7 L-6,7 L-6,6 L-5,6 L-5,5 L-4,5 L-4,4 L-3,4 L-3,3 L-2,3 L-2,2 L-1,2 L-1,1 L0,1 Z " fill="#1A0705" transform="translate(563,435)"/>
<path d="M0,0 L1,0 L1,2 L2,2 L2,3 L1,3 L1,4 L0,4 L0,8 L-1,8 L-1,10 L1,10 L1,12 L-1,12 L-1,14 L-2,14 L-2,13 L-3,13 L-3,15 L-4,15 L-4,14 L-5,14 L-5,12 L-4,12 L-4,10 L-3,10 L-3,7 L-2,7 L-2,5 L-1,5 L-1,3 L0,3 Z " fill="#130605" transform="translate(614,355)"/>
<path d="M0,0 L4,0 L4,2 L5,2 L5,1 L10,1 L10,3 L7,3 L7,4 L8,4 L8,6 L6,6 L6,5 L4,5 L4,4 L2,4 L2,3 L-1,3 L-1,1 L0,1 Z " fill="#0D0404" transform="translate(486,62)"/>
<path d="M0,0 L1,0 L1,2 L0,2 L0,6 L1,6 L1,7 L0,7 L0,14 L-1,14 L-1,12 L-2,12 L-2,10 L-1,10 L-1,8 L-2,8 L-2,9 L-4,9 L-4,10 L-6,10 L-6,9 L-5,9 L-5,7 L-4,7 L-4,6 L-3,6 L-3,4 L-2,4 L-2,3 L-1,3 L-1,1 L0,1 Z " fill="#F84623" transform="translate(359,395)"/>
<path d="M0,0 L2,0 L2,1 L1,1 L1,6 L-1,6 L-1,5 L-5,5 L-5,4 L-8,4 L-8,5 L-12,5 L-12,4 L-9,4 L-9,3 L-6,3 L-6,2 L-3,2 L-3,1 L0,1 Z " fill="#DF3918" transform="translate(333,58)"/>
<path d="M0,0 L4,0 L4,2 L2,2 L2,3 L1,3 L1,4 L0,4 L0,5 L-1,5 L-1,6 L-3,6 L-3,7 L-5,7 L-5,8 L-6,8 L-6,7 L-8,7 L-8,6 L-6,6 L-6,5 L-5,5 L-5,4 L-4,4 L-4,3 L-2,3 L-2,2 L-1,2 L-1,1 L0,1 Z " fill="#0D0302" transform="translate(538,457)"/>
<path d="M0,0 L1,0 L1,1 L2,1 L2,2 L5,2 L5,3 L6,3 L6,4 L7,4 L7,5 L10,5 L10,6 L9,6 L9,7 L10,7 L10,8 L11,8 L11,10 L10,10 L10,9 L9,9 L9,8 L7,8 L7,7 L6,7 L6,6 L4,6 L4,5 L3,5 L3,4 L1,4 L1,3 L0,3 L0,2 L-2,2 L-2,1 L0,1 Z " fill="#F74C2C" transform="translate(397,293)"/>
<path d="M0,0 L2,0 L2,1 L3,1 L3,2 L4,2 L4,3 L5,3 L5,4 L6,4 L6,5 L7,5 L7,6 L8,6 L8,7 L10,7 L10,8 L11,8 L11,9 L9,9 L9,8 L6,8 L6,7 L5,7 L5,6 L3,6 L3,5 L-1,5 L-1,4 L0,4 Z " fill="#E83B19" transform="translate(542,98)"/>
<path d="M0,0 L2,0 L2,2 L4,2 L4,3 L7,3 L7,5 L5,5 L5,6 L3,6 L3,7 L1,7 L1,8 L-1,8 L-1,5 L3,5 L3,4 L0,4 L0,3 L-1,3 L-1,1 L0,1 Z " fill="#ED3B17" transform="translate(494,476)"/>
<path d="M0,0 L1,0 L1,22 L0,22 L0,19 L-1,19 L-1,20 L-2,20 L-2,14 L0,14 Z " fill="#F66046" transform="translate(303,221)"/>
<path d="M0,0 L2,0 L2,1 L4,1 L4,2 L8,2 L8,3 L6,3 L6,4 L4,4 L4,5 L2,5 L2,6 L1,6 L1,7 L-1,7 L-1,6 L-2,6 L-2,4 L-1,4 L-1,3 L2,3 L2,2 L-1,2 L-1,1 L0,1 Z " fill="#EC3C1A" transform="translate(510,469)"/>
<path d="M0,0 L1,0 L1,2 L0,2 L0,3 L-1,3 L-1,4 L0,4 L0,5 L1,5 L1,6 L-1,6 L-1,7 L-2,7 L-2,8 L-3,8 L-3,9 L-4,9 L-4,10 L-8,10 L-8,9 L-7,9 L-7,8 L-6,8 L-6,7 L-5,7 L-5,6 L-4,6 L-4,4 L-3,4 L-3,3 L-2,3 L-2,2 L-1,2 L-1,1 L0,1 Z " fill="#DE3719" transform="translate(230,125)"/>
<path d="M0,0 L1,0 L1,1 L2,1 L2,3 L3,3 L3,4 L4,4 L4,6 L5,6 L5,7 L6,7 L6,9 L7,9 L7,10 L8,10 L8,11 L7,11 L7,12 L6,12 L6,10 L5,10 L5,9 L4,9 L4,8 L3,8 L3,6 L2,6 L2,8 L1,8 L1,5 L0,5 L0,4 L-1,4 L-1,2 L0,2 Z " fill="#140506" transform="translate(206,395)"/>
<path d="M0,0 L1,0 L1,2 L0,2 L0,3 L-2,3 L-2,4 L-3,4 L-3,5 L-2,5 L-2,6 L-3,6 L-3,8 L-5,8 L-5,6 L-6,6 L-6,7 L-10,7 L-10,6 L-9,6 L-9,5 L-7,5 L-7,4 L-6,4 L-6,3 L-4,3 L-4,2 L-2,2 L-2,1 L0,1 Z " fill="#F9EDE8" transform="translate(346,154)"/>
<path d="M0,0 L2,0 L2,1 L1,1 L1,2 L0,2 L0,3 L-1,3 L-1,4 L-3,4 L-3,6 L-1,6 L-1,7 L-3,7 L-3,8 L-5,8 L-5,9 L-6,9 L-6,6 L-9,6 L-9,5 L-7,5 L-7,4 L-5,4 L-5,3 L-3,3 L-3,2 L-1,2 L-1,1 L0,1 Z " fill="#120404" transform="translate(512,474)"/>
<path d="M0,0 L1,0 L1,2 L0,2 L0,3 L-1,3 L-1,6 L1,6 L1,10 L0,10 L0,11 L-1,11 L-1,9 L-2,9 L-2,7 L-3,7 L-3,6 L-4,6 L-4,4 L-5,4 L-5,3 L-4,3 L-4,2 L-1,2 L-1,1 L0,1 Z " fill="#EC3B18" transform="translate(206,382)"/>
<path d="M0,0 L1,0 L1,7 L3,7 L3,10 L2,10 L2,12 L1,12 L1,10 L0,10 L0,17 L-1,17 L-1,5 L0,5 Z " fill="#FBE0DB" transform="translate(305,207)"/>
<path d="M0,0 L3,0 L3,1 L5,1 L5,2 L4,2 L4,3 L3,3 L3,4 L2,4 L2,5 L1,5 L1,6 L0,6 L0,7 L-1,7 L-1,8 L-2,8 L-2,9 L-3,9 L-3,5 L-1,5 L-1,2 L0,2 Z " fill="#F84C2F" transform="translate(324,165)"/>
<path d="M0,0 L1,0 L1,2 L5,2 L5,3 L7,3 L7,4 L4,4 L4,5 L3,5 L3,6 L1,6 L1,7 L-1,7 L-1,8 L-2,8 L-2,6 L-3,6 L-3,5 L-2,5 L-2,4 L-1,4 L-1,5 L0,5 L0,2 L-1,2 L-1,1 L0,1 Z " fill="#0E0403" transform="translate(292,69)"/>
<path d="M0,0 L1,0 L1,3 L2,3 L2,5 L3,5 L3,8 L4,8 L4,10 L5,10 L5,12 L6,12 L6,14 L5,14 L5,13 L4,13 L4,14 L3,14 L3,9 L2,9 L2,8 L1,8 L1,7 L0,7 L0,3 L-1,3 L-1,1 L0,1 Z " fill="#200906" transform="translate(187,355)"/>
<path d="M0,0 L2,0 L2,4 L1,4 L1,9 L0,9 L0,14 L-1,14 L-1,10 L-2,10 L-2,4 L0,4 Z " fill="#EA3A1B" transform="translate(622,319)"/>
<path d="M0,0 L1,0 L1,13 L2,13 L2,17 L1,17 L1,16 L0,16 L0,14 L-1,14 L-1,15 L-2,15 L-2,11 L-1,11 L-1,9 L0,9 Z " fill="#150402" transform="translate(173,288)"/>
<path d="M0,0 L2,0 L2,4 L3,4 L3,2 L4,2 L4,0 L5,0 L5,3 L4,3 L4,10 L3,10 L3,5 L2,5 L2,8 L0,8 Z " fill="#130505" transform="translate(626,305)"/>
<path d="M0,0 L1,0 L1,2 L2,2 L2,3 L3,3 L3,5 L4,5 L4,6 L5,6 L5,7 L6,7 L6,8 L7,8 L7,9 L2,9 L2,5 L-1,5 L-1,1 L0,1 Z " fill="#F84726" transform="translate(318,281)"/>
<path d="M0,0 L1,0 L1,1 L2,1 L2,2 L3,2 L3,3 L4,3 L4,4 L5,4 L5,5 L6,5 L6,6 L7,6 L7,7 L8,7 L8,8 L6,8 L6,9 L4,9 L4,8 L3,8 L3,6 L2,6 L2,5 L1,5 L1,3 L0,3 Z " fill="#F9EEE9" transform="translate(368,273)"/>
<path d="M0,0 L5,0 L5,1 L6,1 L6,2 L7,2 L7,5 L9,5 L9,8 L8,8 L8,7 L7,7 L7,6 L6,6 L6,5 L4,5 L4,4 L3,4 L3,3 L2,3 L2,2 L1,2 L1,1 L0,1 Z " fill="#F84B2A" transform="translate(373,277)"/>
<path d="M0,0 L4,0 L4,3 L3,3 L3,5 L2,5 L2,6 L1,6 L1,8 L0,8 L0,10 L-1,10 L-1,9 L-3,9 L-3,8 L-2,8 L-2,7 L-1,7 L-1,4 L1,4 L1,1 L0,1 Z " fill="#FBF3F0" transform="translate(355,195)"/>
<path d="M0,0 L1,0 L1,2 L2,2 L2,3 L1,3 L1,4 L-1,4 L-1,7 L0,7 L0,9 L-1,9 L-1,10 L-6,10 L-6,9 L-5,9 L-5,8 L-4,8 L-4,6 L-3,6 L-3,5 L-2,5 L-2,3 L-1,3 L-1,2 L0,2 Z " fill="#E53B1A" transform="translate(212,148)"/>
<path d="M0,0 L2,0 L2,1 L4,1 L4,2 L5,2 L5,3 L7,3 L7,4 L9,4 L9,5 L11,5 L11,6 L7,6 L7,5 L5,5 L5,6 L3,6 L3,4 L1,4 L1,2 L0,2 Z " fill="#E73A1B" transform="translate(507,75)"/>
<path d="M0,0 L1,0 L1,1 L2,1 L2,2 L1,2 L1,3 L0,3 L0,5 L-1,5 L-1,6 L-2,6 L-2,8 L-3,8 L-3,9 L-4,9 L-4,11 L-5,11 L-5,9 L-6,9 L-6,7 L-5,7 L-5,5 L-4,5 L-4,4 L-3,4 L-3,5 L-2,5 L-2,2 L0,2 Z " fill="#FBF2EF" transform="translate(376,366)"/>
<path d="M0,0 L1,0 L1,1 L2,1 L2,2 L3,2 L3,3 L5,3 L5,4 L6,4 L6,5 L7,5 L7,6 L9,6 L9,7 L5,7 L5,6 L1,6 L1,5 L-1,5 L-1,4 L1,4 L1,3 L0,3 Z " fill="#FAEFEB" transform="translate(378,282)"/>
<path d="M0,0 L1,0 L1,5 L2,5 L2,8 L3,8 L3,11 L4,11 L4,13 L3,13 L3,14 L2,14 L2,9 L1,9 L1,8 L0,8 L0,7 L-2,7 L-2,4 L-1,4 L-1,3 L0,3 Z " fill="#FAE1DB" transform="translate(351,240)"/>
<path d="M0,0 L1,0 L1,2 L3,2 L3,6 L2,6 L2,7 L1,7 L1,8 L0,8 L0,9 L-2,9 L-2,10 L-3,10 L-3,11 L-4,11 L-4,9 L-3,9 L-3,8 L-1,8 L-1,7 L0,7 L0,6 L1,6 L1,4 L0,4 L0,3 L-1,3 L-1,4 L-3,4 L-3,3 L-2,3 L-2,2 L-1,2 L-1,1 L0,1 Z " fill="#FB4A2B" transform="translate(363,192)"/>
<path d="M0,0 L7,0 L7,1 L2,1 L2,2 L-4,2 L-4,3 L-8,3 L-8,4 L-11,4 L-11,2 L-10,2 L-10,1 L-8,1 L-8,2 L-6,2 L-6,1 L0,1 Z " fill="#F84829" transform="translate(376,142)"/>
<path d="M0,0 L2,0 L2,2 L1,2 L1,4 L2,4 L2,5 L1,5 L1,6 L0,6 L0,4 L-2,4 L-2,6 L-4,6 L-4,7 L-2,7 L-2,8 L-5,8 L-5,7 L-7,7 L-7,6 L-6,6 L-6,5 L-4,5 L-4,4 L-3,4 L-3,3 L-2,3 L-2,2 L-1,2 L-1,1 L0,1 Z " fill="#E9391B" transform="translate(258,98)"/>
<path d="M0,0 L1,0 L1,1 L3,1 L3,2 L1,2 L1,3 L0,3 L0,4 L-2,4 L-2,5 L-3,5 L-3,6 L-4,6 L-4,7 L-5,7 L-5,8 L-7,8 L-7,9 L-8,9 L-8,10 L-9,10 L-9,7 L-7,7 L-7,5 L-5,5 L-5,4 L-3,4 L-3,3 L-2,3 L-2,2 L0,2 Z " fill="#170605" transform="translate(265,90)"/>
<path d="M0,0 L1,0 L1,3 L-1,3 L-1,4 L-3,4 L-3,6 L-4,6 L-4,5 L-5,5 L-5,7 L-4,7 L-4,8 L-6,8 L-6,7 L-10,7 L-10,6 L-8,6 L-8,5 L-6,5 L-6,4 L-5,4 L-5,3 L-3,3 L-3,2 L-2,2 L-2,1 L0,1 Z " fill="#170405" transform="translate(524,467)"/>
<path d="M0,0 L1,0 L1,1 L2,1 L2,2 L3,2 L3,4 L1,4 L1,8 L0,8 L0,7 L-1,7 L-1,8 L-2,8 L-2,7 L-4,7 L-4,6 L-3,6 L-3,5 L-2,5 L-2,3 L-1,3 L-1,2 L0,2 Z " fill="#F9ECE7" transform="translate(324,370)"/>
<path d="M0,0 L1,0 L1,12 L0,12 L0,16 L-1,16 L-1,5 L-2,5 L-2,4 L-1,4 L-1,3 L0,3 Z " fill="#CF351A" transform="translate(627,289)"/>
<path d="M0,0 L3,0 L3,1 L2,1 L2,4 L4,4 L4,6 L3,6 L3,8 L4,8 L4,9 L3,9 L3,11 L5,11 L5,12 L4,12 L4,14 L3,14 L3,12 L2,12 L2,8 L1,8 L1,2 L0,2 Z " fill="#F9E3DD" transform="translate(305,247)"/>
<path d="M0,0 L4,0 L4,2 L0,2 L0,3 L-2,3 L-2,4 L-4,4 L-4,3 L-10,3 L-10,2 L-6,2 L-6,1 L0,1 Z " fill="#F9E6E1" transform="translate(378,143)"/>
<path d="M0,0 L2,0 L2,1 L4,1 L4,2 L5,2 L5,3 L8,3 L8,4 L7,4 L7,5 L8,5 L8,6 L9,6 L9,7 L10,7 L10,8 L9,8 L9,9 L8,9 L8,8 L7,8 L7,7 L6,7 L6,6 L5,6 L5,5 L4,5 L4,4 L3,4 L3,3 L2,3 L2,2 L1,2 L1,1 L0,1 Z " fill="#210906" transform="translate(559,112)"/>
<path d="M0,0 L3,0 L3,2 L2,2 L2,3 L0,3 L0,4 L-1,4 L-1,5 L-3,5 L-3,6 L-4,6 L-4,7 L-6,7 L-6,4 L-5,4 L-5,3 L-2,3 L-2,2 L0,2 Z " fill="#E13918" transform="translate(530,460)"/>
<path d="M0,0 L1,0 L1,2 L2,2 L2,3 L1,3 L1,4 L0,4 L0,6 L-1,6 L-1,8 L0,8 L0,10 L-2,10 L-2,7 L-3,7 L-3,9 L-4,9 L-4,10 L-6,10 L-6,9 L-5,9 L-5,8 L-4,8 L-4,6 L-3,6 L-3,5 L-2,5 L-2,4 L-1,4 L-1,2 L0,2 Z " fill="#170606" transform="translate(591,400)"/>
<path d="M0,0 L1,0 L1,1 L2,1 L2,2 L1,2 L1,6 L0,6 L0,8 L-1,8 L-1,12 L-2,12 L-2,9 L-3,9 L-3,8 L-2,8 L-2,2 L-1,2 L-1,1 L0,1 Z " fill="#130505" transform="translate(183,203)"/>
<path d="M0,0 L11,0 L11,1 L6,1 L6,2 L3,2 L3,3 L0,3 L0,4 L-2,4 L-2,2 L-1,2 L-1,1 L0,1 Z " fill="#FAEEEB" transform="translate(379,179)"/>
<path d="M0,0 L1,0 L1,2 L0,2 L0,3 L2,3 L2,4 L1,4 L1,6 L-4,6 L-4,7 L-5,7 L-5,8 L-7,8 L-7,7 L-6,7 L-6,6 L-5,6 L-5,5 L-4,5 L-4,4 L-3,4 L-3,3 L-2,3 L-2,2 L-1,2 L-1,1 L0,1 Z " fill="#D03517" transform="translate(243,111)"/>
<path d="M0,0 L2,0 L2,1 L5,1 L5,2 L3,2 L3,3 L2,3 L2,4 L0,4 L0,5 L-1,5 L-1,6 L-3,6 L-3,7 L-4,7 L-4,8 L-5,8 L-5,7 L-6,7 L-6,6 L-4,6 L-4,4 L-1,4 L-1,2 L0,2 Z " fill="#130704" transform="translate(273,83)"/>
<path d="M0,0 L1,0 L1,1 L2,1 L2,6 L6,6 L6,8 L5,8 L5,7 L4,7 L4,11 L3,11 L3,12 L2,12 L2,8 L1,8 L1,3 L0,3 Z " fill="#E33919" transform="translate(177,317)"/>
<path d="M0,0 L1,0 L1,1 L2,1 L2,3 L3,3 L3,4 L4,4 L4,5 L5,5 L5,6 L6,6 L6,7 L5,7 L5,8 L4,8 L4,7 L3,7 L3,6 L1,6 L1,7 L0,7 L0,3 L-1,3 L-1,2 L0,2 Z " fill="#120504" transform="translate(217,411)"/>
<path d="M0,0 L1,0 L1,1 L2,1 L2,2 L1,2 L1,3 L0,3 L0,5 L-1,5 L-1,6 L-2,6 L-2,8 L-3,8 L-3,9 L-4,9 L-4,11 L-5,11 L-5,6 L-4,6 L-4,5 L-2,5 L-2,2 L0,2 Z " fill="#FAEEE9" transform="translate(360,390)"/>
<path d="M0,0 L1,0 L1,2 L0,2 L0,3 L2,3 L2,5 L1,5 L1,6 L0,6 L0,7 L-1,7 L-1,9 L-2,9 L-2,11 L-3,11 L-3,6 L-2,6 L-2,4 L-1,4 L-1,1 L0,1 Z " fill="#FA4527" transform="translate(335,348)"/>
<path d="M0,0 L2,0 L2,1 L4,1 L4,2 L5,2 L5,3 L4,3 L4,4 L3,4 L3,6 L2,6 L2,8 L1,8 L1,3 L-2,3 L-2,2 L-1,2 L-1,1 L0,1 Z " fill="#F9F4F0" transform="translate(395,332)"/>
<path d="M0,0 L3,0 L3,2 L2,2 L2,3 L1,3 L1,4 L0,4 L0,6 L-1,6 L-1,8 L-2,8 L-2,9 L-3,9 L-3,10 L-4,10 L-4,7 L-3,7 L-3,6 L-2,6 L-2,3 L0,3 Z " fill="#FBEEE9" transform="translate(406,320)"/>
<path d="M0,0 L2,0 L2,3 L1,3 L1,2 L-1,2 L-1,3 L-2,3 L-2,4 L2,4 L2,5 L-3,5 L-3,8 L-4,8 L-4,6 L-6,6 L-6,5 L-5,5 L-5,4 L-4,4 L-4,3 L-3,3 L-3,2 L-2,2 L-2,1 L0,1 Z " fill="#F84B2C" transform="translate(371,186)"/>
<path d="M0,0 L4,0 L4,1 L5,1 L5,2 L4,2 L4,3 L2,3 L2,4 L1,4 L1,5 L0,5 L0,6 L-1,6 L-1,7 L-2,7 L-2,4 L0,4 L0,3 L-1,3 L-1,1 L0,1 Z " fill="#110504" transform="translate(250,100)"/>
<path d="M0,0 L2,0 L2,1 L1,1 L1,4 L-2,4 L-2,6 L-3,6 L-3,7 L-4,7 L-4,8 L-5,8 L-5,7 L-7,7 L-7,6 L-6,6 L-6,5 L-4,5 L-4,4 L-3,4 L-3,3 L-2,3 L-2,2 L-1,2 L-1,1 L0,1 Z " fill="#130605" transform="translate(548,449)"/>
<path d="M0,0 L1,0 L1,5 L-1,5 L-1,8 L-2,8 L-2,9 L-4,9 L-4,11 L-6,11 L-6,10 L-5,10 L-5,8 L-4,8 L-4,7 L-3,7 L-3,5 L-2,5 L-2,4 L-1,4 L-1,2 L0,2 Z " fill="#170604" transform="translate(598,389)"/>
<path d="M0,0 L2,0 L2,2 L1,2 L1,6 L2,6 L2,9 L1,9 L1,8 L0,8 L0,7 L-3,7 L-3,6 L-2,6 L-2,4 L-1,4 L-1,2 L0,2 Z " fill="#0D0404" transform="translate(606,374)"/>
<path d="M0,0 L2,0 L2,1 L3,1 L3,2 L2,2 L2,4 L1,4 L1,5 L0,5 L0,7 L-1,7 L-1,8 L-2,8 L-2,10 L-3,10 L-3,7 L-2,7 L-2,6 L-3,6 L-3,4 L-2,4 L-2,3 L-1,3 L-1,4 L0,4 L0,2 L1,2 L1,1 L0,1 Z " fill="#FAF3EE" transform="translate(384,352)"/>
<path d="M0,0 L2,0 L2,2 L1,2 L1,3 L0,3 L0,5 L-1,5 L-1,6 L-2,6 L-2,8 L-3,8 L-3,7 L-5,7 L-5,5 L-3,5 L-3,3 L-2,3 L-2,2 L-1,2 L-1,1 L0,1 Z " fill="#F84627" transform="translate(351,327)"/>
<path d="M0,0 L1,0 L1,3 L2,3 L2,9 L1,9 L1,12 L0,12 L0,10 L-1,10 L-1,6 L0,6 Z " fill="#DB3816" transform="translate(177,231)"/>
<path d="M0,0 L6,0 L6,2 L4,2 L4,1 L2,1 L2,3 L4,3 L4,4 L3,4 L3,5 L2,5 L2,4 L-1,4 L-1,3 L0,3 L0,2 L-4,2 L-4,1 L0,1 Z " fill="#DA361A" transform="translate(356,52)"/>
<path d="M0,0 L1,0 L1,1 L3,1 L3,2 L4,2 L4,3 L6,3 L6,4 L7,4 L7,5 L6,5 L6,6 L5,6 L5,4 L0,4 L0,5 L-1,5 L-1,1 L0,1 Z " fill="#FBF2EF" transform="translate(406,302)"/>
<path d="M0,0 L2,0 L2,1 L4,1 L4,3 L5,3 L5,4 L7,4 L7,7 L6,7 L6,8 L5,8 L5,6 L4,6 L4,5 L3,5 L3,4 L2,4 L2,3 L1,3 L1,1 L0,1 Z " fill="#FBECE7" transform="translate(320,283)"/>
<path d="M0,0 L5,0 L5,1 L6,1 L6,2 L8,2 L8,3 L12,3 L12,4 L4,4 L4,3 L3,3 L3,1 L0,1 Z " fill="#140304" transform="translate(408,45)"/>
<path d="M0,0 L2,0 L2,1 L5,1 L5,2 L8,2 L8,3 L3,3 L3,4 L-1,4 L-1,2 L0,2 Z " fill="#0E0304" transform="translate(325,491)"/>
<path d="M0,0 L2,0 L2,1 L3,1 L3,2 L1,2 L1,4 L-5,4 L-5,2 L-3,2 L-3,1 L0,1 Z " fill="#140505" transform="translate(477,490)"/>
<path d="M0,0 L5,0 L5,2 L4,2 L4,3 L3,3 L3,5 L2,5 L2,4 L1,4 L1,3 L-1,3 L-1,2 L-2,2 L-2,1 L0,1 Z " fill="#EA3B19" transform="translate(271,460)"/>
<path d="M0,0 L1,0 L1,3 L0,3 L0,5 L-1,5 L-1,6 L-2,6 L-2,7 L-3,7 L-3,8 L-4,8 L-4,9 L-5,9 L-5,6 L-4,6 L-4,5 L-3,5 L-3,3 L-1,3 L-1,1 L0,1 Z " fill="#E53B19" transform="translate(573,421)"/>
<path d="M0,0 L2,0 L2,2 L1,2 L1,5 L3,5 L3,7 L2,7 L2,8 L1,8 L1,10 L0,10 L0,11 L-1,11 L-1,8 L0,8 Z " fill="#F94524" transform="translate(299,398)"/>
<path d="M0,0 L1,0 L1,2 L0,2 L0,4 L-1,4 L-1,9 L-2,9 L-2,8 L-4,8 L-4,10 L-6,10 L-6,9 L-5,9 L-5,7 L-4,7 L-4,6 L-3,6 L-3,5 L-2,5 L-2,3 L-1,3 L-1,1 L0,1 Z " fill="#F75236" transform="translate(407,323)"/>
<path d="M0,0 L1,0 L1,1 L2,1 L2,2 L3,2 L3,3 L4,3 L4,4 L5,4 L5,5 L7,5 L7,6 L8,6 L8,7 L5,7 L5,6 L3,6 L3,7 L2,7 L2,4 L1,4 L1,2 L0,2 Z " fill="#F64B2A" transform="translate(342,307)"/>
<path d="M0,0 L1,0 L1,1 L2,1 L2,3 L3,3 L3,5 L4,5 L4,7 L5,7 L5,8 L4,8 L4,9 L3,9 L3,7 L1,7 L1,5 L0,5 Z " fill="#DA371A" transform="translate(598,163)"/>
<path d="M0,0 L2,0 L2,1 L4,1 L4,2 L6,2 L6,3 L8,3 L8,4 L7,4 L7,5 L4,5 L4,4 L2,4 L2,3 L1,3 L1,2 L0,2 Z " fill="#E5391B" transform="translate(493,68)"/>
<path d="M0,0 L3,0 L3,2 L2,2 L2,3 L1,3 L1,4 L0,4 L0,6 L-1,6 L-1,7 L-2,7 L-2,3 L-3,3 L-3,2 L0,2 Z " fill="#E53919" transform="translate(582,409)"/>
<path d="M0,0 L2,0 L2,2 L3,2 L3,4 L4,4 L4,6 L3,6 L3,7 L2,7 L2,5 L0,5 L0,4 L-1,4 L-1,2 L0,2 Z " fill="#120405" transform="translate(202,389)"/>
<path d="M0,0 L1,0 L1,1 L2,1 L2,0 L4,0 L4,1 L3,1 L3,3 L2,3 L2,4 L1,4 L1,6 L0,6 L0,7 L-1,7 L-1,1 L0,1 Z " fill="#FBF5F3" transform="translate(391,341)"/>
<path d="M0,0 L1,0 L1,3 L0,3 L0,4 L-1,4 L-1,8 L-5,8 L-5,7 L-4,7 L-4,5 L-3,5 L-3,4 L-2,4 L-2,3 L-1,3 L-1,1 L0,1 Z " fill="#FAE6DD" transform="translate(348,335)"/>
<path d="M0,0 L2,0 L2,1 L3,1 L3,0 L4,0 L4,1 L5,1 L5,2 L8,2 L8,4 L7,4 L7,3 L5,3 L5,4 L6,4 L6,6 L5,6 L5,5 L4,5 L4,4 L3,4 L3,3 L2,3 L2,2 L1,2 L1,1 L0,1 Z " fill="#FCF4F1" transform="translate(328,293)"/>
<path d="M0,0 L4,0 L4,2 L7,2 L7,4 L5,4 L5,6 L4,6 L4,5 L3,5 L3,3 L2,3 L2,2 L1,2 L1,1 L0,1 Z " fill="#0D0403" transform="translate(585,142)"/>
<path d="M0,0 L2,0 L2,1 L1,1 L1,3 L0,3 L0,4 L-3,4 L-3,5 L-7,5 L-7,4 L-5,4 L-5,3 L-4,3 L-4,2 L-2,2 L-2,1 L0,1 Z " fill="#DC371C" transform="translate(291,76)"/>
<path d="M0,0 L2,0 L2,1 L1,1 L1,2 L3,2 L3,3 L5,3 L5,5 L2,5 L2,4 L0,4 L0,3 L-2,3 L-2,1 L0,1 Z " fill="#E73818" transform="translate(314,483)"/>
<path d="M0,0 L1,0 L1,1 L2,1 L2,2 L4,2 L4,3 L5,3 L5,4 L7,4 L7,5 L5,5 L5,6 L4,6 L4,5 L3,5 L3,4 L2,4 L2,3 L-2,3 L-2,1 L-1,1 L-1,2 L0,2 Z " fill="#170505" transform="translate(271,463)"/>
<path d="M0,0 L1,0 L1,1 L2,1 L2,2 L3,2 L3,3 L4,3 L4,4 L5,4 L5,5 L7,5 L7,6 L8,6 L8,7 L7,7 L7,8 L5,8 L5,6 L4,6 L4,5 L2,5 L2,3 L1,3 L1,2 L0,2 Z " fill="#140504" transform="translate(254,450)"/>
<path d="M0,0 L2,0 L2,1 L5,1 L5,2 L7,2 L7,6 L6,6 L6,5 L5,5 L5,4 L3,4 L3,3 L2,3 L2,2 L1,2 L1,1 L0,1 Z " fill="#DA361B" transform="translate(240,437)"/>
<path d="M0,0 L2,0 L2,2 L3,2 L3,1 L4,1 L4,7 L5,7 L5,8 L4,8 L4,9 L3,9 L3,6 L2,6 L2,4 L1,4 L1,1 L0,1 Z " fill="#E93B19" transform="translate(187,354)"/>
<path d="M0,0 L1,0 L1,2 L2,2 L2,3 L1,3 L1,5 L2,5 L2,6 L-2,6 L-2,8 L-4,8 L-4,7 L-3,7 L-3,5 L-2,5 L-2,4 L-1,4 L-1,2 L0,2 Z " fill="#FAEBE4" transform="translate(358,319)"/>
<path d="M0,0 L1,0 L1,4 L2,4 L2,7 L3,7 L3,11 L2,11 L2,8 L0,8 L0,5 L-1,5 L-1,3 L0,3 Z " fill="#D13717" transform="translate(618,208)"/>
<path d="M0,0 L1,0 L1,1 L3,1 L3,0 L5,0 L5,1 L6,1 L6,2 L5,2 L5,3 L4,3 L4,4 L3,4 L3,5 L2,5 L2,4 L1,4 L1,3 L0,3 Z " fill="#F9EEE9" transform="translate(362,187)"/>
<path d="M0,0 L5,0 L5,1 L8,1 L8,2 L2,2 L2,3 L-2,3 L-2,2 L-1,2 L-1,1 L0,1 Z " fill="#FCF4F2" transform="translate(392,176)"/>
<path d="M0,0 L1,0 L1,2 L4,2 L4,4 L5,4 L5,8 L4,8 L4,7 L3,7 L3,5 L2,5 L2,4 L1,4 L1,3 L0,3 L0,2 L-1,2 L-1,1 L0,1 Z " fill="#170704" transform="translate(579,132)"/>
<path d="M0,0 L3,0 L3,6 L2,6 L2,5 L1,5 L1,4 L0,4 L0,3 L-1,3 L-1,2 L-2,2 L-2,1 L0,1 Z " fill="#1C0807" transform="translate(548,99)"/>
<path d="M0,0 L5,0 L5,1 L8,1 L8,2 L7,2 L7,3 L5,3 L5,2 L3,2 L3,3 L1,3 L1,2 L0,2 Z " fill="#0A0205" transform="translate(335,495)"/>
<path d="M0,0 L1,0 L1,1 L2,1 L2,2 L3,2 L3,3 L4,3 L4,4 L5,4 L5,5 L6,5 L6,6 L4,6 L4,5 L0,5 Z " fill="#1E0904" transform="translate(244,441)"/>
<path d="M0,0 L1,0 L1,2 L0,2 L0,4 L1,4 L1,5 L0,5 L0,6 L-1,6 L-1,8 L-2,8 L-2,7 L-4,7 L-4,6 L-3,6 L-3,4 L-2,4 L-2,3 L-1,3 L-1,1 L0,1 Z " fill="#FBEAE6" transform="translate(311,390)"/>
<path d="M0,0 L1,0 L1,5 L0,5 L0,8 L-1,8 L-1,6 L-2,6 L-2,7 L-4,7 L-4,6 L-3,6 L-3,5 L-2,5 L-2,3 L-1,3 L-1,2 L0,2 Z " fill="#FAE7E1" transform="translate(316,382)"/>
<path d="M0,0 L1,0 L1,1 L3,1 L3,2 L2,2 L2,3 L1,3 L1,5 L0,5 L0,6 L-1,6 L-1,5 L-2,5 L-2,4 L-3,4 L-3,2 L0,2 Z " fill="#FBF2EF" transform="translate(363,384)"/>
<path d="M0,0 L4,0 L4,1 L5,1 L5,3 L4,3 L4,5 L3,5 L3,4 L1,4 L1,2 L0,2 Z " fill="#F74624" transform="translate(353,318)"/>
<path d="M0,0 L1,0 L1,2 L2,2 L2,4 L3,4 L3,6 L4,6 L4,7 L5,7 L5,8 L1,8 L1,3 L-1,3 L-1,2 L0,2 Z " fill="#F9DED9" transform="translate(356,256)"/>
<path d="M0,0 L1,0 L1,2 L2,2 L2,4 L3,4 L3,5 L2,5 L2,7 L0,7 L0,8 L-1,8 L-1,4 L0,4 Z " fill="#F84624" transform="translate(353,207)"/>
<path d="M0,0 L1,0 L1,2 L3,2 L3,3 L2,3 L2,4 L5,4 L5,6 L4,6 L4,8 L3,8 L3,7 L2,7 L2,5 L1,5 L1,3 L0,3 L0,2 L-1,2 L-1,1 L0,1 Z " fill="#150605" transform="translate(591,148)"/>
</svg>
